<svg width="167" height="60" viewBox="0 0 167 60" fill="none" xmlns="http://www.w3.org/2000/svg">
<g filter="url(#filter0_d_22_10)">
<path d="M4 26C4 11.6406 15.6406 0 30 0H137C151.359 0 163 11.6406 163 26V26C163 40.3594 151.359 52 137 52H30C15.6406 52 4 40.3594 4 26V26Z" fill="black"/>
<path d="M30 0.5H137C151.083 0.5 162.5 11.9167 162.5 26C162.5 40.0833 151.083 51.5 137 51.5H30C15.9167 51.5 4.5 40.0833 4.5 26C4.5 11.9167 15.9167 0.5 30 0.5Z" stroke="black"/>
</g>
<defs>
<filter id="filter0_d_22_10" x="0" y="0" width="167" height="60" filterUnits="userSpaceOnUse" color-interpolation-filters="sRGB">
<feFlood flood-opacity="0" result="BackgroundImageFix"/>
<feColorMatrix in="SourceAlpha" type="matrix" values="0 0 0 0 0 0 0 0 0 0 0 0 0 0 0 0 0 0 127 0" result="hardAlpha"/>
<feOffset dy="4"/>
<feGaussianBlur stdDeviation="2"/>
<feComposite in2="hardAlpha" operator="out"/>
<feColorMatrix type="matrix" values="0 0 0 0 0 0 0 0 0 0 0 0 0 0 0 0 0 0 0.25 0"/>
<feBlend mode="normal" in2="BackgroundImageFix" result="effect1_dropShadow_22_10"/>
<feBlend mode="normal" in="SourceGraphic" in2="effect1_dropShadow_22_10" result="shape"/>
</filter>
</defs>
</svg>
