<svg width="56" height="50" viewBox="0 0 56 50" fill="none" xmlns="http://www.w3.org/2000/svg">
<path d="M50 0H6C4.4087 0 2.88258 0.564412 1.75736 1.56907C0.632141 2.57373 0 3.93634 0 5.35714L0 44.6429C0 46.0637 0.632141 47.4263 1.75736 48.4309C2.88258 49.4356 4.4087 50 6 50H23.1562V33.0011H15.2812V25H23.1562V18.9018C23.1562 11.9654 27.7813 8.13393 34.865 8.13393C38.2575 8.13393 41.805 8.67411 41.805 8.67411V15.4821H37.8963C34.045 15.4821 32.8438 17.6161 32.8438 19.8047V25H41.4412L40.0662 33.0011H32.8438V50H50C51.5913 50 53.1174 49.4356 54.2426 48.4309C55.3679 47.4263 56 46.0637 56 44.6429V5.35714C56 3.93634 55.3679 2.57373 54.2426 1.56907C53.1174 0.564412 51.5913 0 50 0Z" fill="black"/>
</svg>
