<svg width="70" height="53" viewBox="0 0 70 53" fill="none" xmlns="http://www.w3.org/2000/svg">
<path d="M62.8047 13.2085C62.8492 13.7882 62.8492 14.368 62.8492 14.9477C62.8492 32.628 48.4139 53 22.0305 53C13.9023 53 6.35157 50.8054 0 46.9962C1.15487 47.1203 2.26517 47.1617 3.46447 47.1617C10.1712 47.1617 16.3452 45.0501 21.2754 41.4477C14.9683 41.3234 9.68273 37.4727 7.86163 32.1726C8.75003 32.2968 9.6383 32.3796 10.5711 32.3796C11.8592 32.3796 13.1473 32.2139 14.3465 31.9242C7.7729 30.6819 2.84253 25.2992 2.84253 18.7984V18.6329C4.75236 19.6266 6.97337 20.2477 9.32726 20.3304C5.46303 17.9288 2.9314 13.8296 2.9314 9.1921C2.9314 6.70777 3.64193 4.43042 4.88566 2.44291C11.9479 10.5585 22.5635 15.8584 34.4669 16.4382C34.2449 15.4445 34.1116 14.4094 34.1116 13.3742C34.1116 6.00384 40.5076 0 48.4581 0C52.5888 0 56.3197 1.61484 58.9404 4.22344C62.1827 3.64378 65.2918 2.52575 68.0457 0.993757C66.9796 4.0993 64.7144 6.70789 61.7386 8.36403C64.6257 8.07433 67.4239 7.32885 70 6.2938C68.046 8.94369 65.603 11.3037 62.8047 13.2085Z" fill="black"/>
</svg>
