<svg width="69" height="60" viewBox="0 0 69 60" fill="none" xmlns="http://www.w3.org/2000/svg">
<path d="M23.0788 48.3119C23.0788 48.56 22.7589 48.7586 22.3554 48.7586C21.8964 48.7958 21.5764 48.5973 21.5764 48.3119C21.5764 48.0638 21.8964 47.8653 22.2998 47.8653C22.7171 47.828 23.0788 48.0266 23.0788 48.3119ZM18.7524 47.7536C18.655 48.0017 18.9333 48.2871 19.3506 48.3615C19.7123 48.4856 20.1296 48.3615 20.2131 48.1134C20.2966 47.8653 20.0323 47.5799 19.6149 47.4683C19.2532 47.3814 18.8498 47.5055 18.7524 47.7536ZM24.9012 47.5427C24.4978 47.6295 24.2196 47.8653 24.2613 48.1506C24.303 48.3988 24.6647 48.56 25.0821 48.4732C25.4855 48.3864 25.7637 48.1506 25.722 47.9025C25.6802 47.6668 25.3046 47.5055 24.9012 47.5427ZM34.0548 0C14.7599 0 0 13.0643 0 30.2725C0 44.0316 9.71008 55.8056 23.5796 59.9495C25.3603 60.2348 25.9863 59.2547 25.9863 58.4482C25.9863 57.679 25.9446 53.4359 25.9446 50.8305C25.9446 50.8305 16.2067 52.6915 14.1617 47.1333C14.1617 47.1333 12.5758 43.5229 10.2944 42.5924C10.2944 42.5924 7.10867 40.6445 10.5169 40.6818C10.5169 40.6818 13.9808 40.9299 15.8867 43.8827C18.9333 48.6717 24.0387 47.2946 26.028 46.4757C26.348 44.4906 27.2522 43.1135 28.2538 42.2946C20.4774 41.5254 12.6315 40.5205 12.6315 28.5852C12.6315 25.1733 13.6887 23.4612 15.9145 21.2776C15.5528 20.4711 14.3704 17.1461 16.2762 12.8534C19.1837 12.047 25.875 16.2032 25.875 16.2032C28.6573 15.5084 31.6482 15.1487 34.6113 15.1487C37.5744 15.1487 40.5653 15.5084 43.3476 16.2032C43.3476 16.2032 50.0389 12.0346 52.9464 12.8534C54.8522 17.1585 53.6698 20.4711 53.3081 21.2776C55.5339 23.4736 56.8972 25.1857 56.8972 28.5852C56.8972 40.5577 48.7034 41.513 40.927 42.2946C42.2069 43.2748 43.2919 45.1358 43.2919 48.0514C43.2919 52.2324 43.2502 57.4061 43.2502 58.4234C43.2502 59.2299 43.8901 60.21 45.6569 59.9246C59.5681 55.8056 69 44.0316 69 30.2725C69 13.0643 53.3498 0 34.0548 0ZM13.5218 42.7909C13.3409 42.915 13.3827 43.2003 13.6192 43.4361C13.8417 43.6346 14.1617 43.7214 14.3425 43.5601C14.5234 43.4361 14.4817 43.1507 14.2452 42.915C14.0226 42.7165 13.7026 42.6296 13.5218 42.7909ZM12.0194 41.786C11.922 41.9472 12.0611 42.1458 12.3393 42.2698C12.5619 42.3939 12.8401 42.3567 12.9375 42.183C13.0349 42.0217 12.8958 41.8232 12.6175 41.6991C12.3393 41.6247 12.1167 41.6619 12.0194 41.786ZM16.5266 46.2028C16.304 46.364 16.3875 46.7363 16.7075 46.972C17.0274 47.2573 17.4308 47.2946 17.6117 47.096C17.7925 46.9348 17.7091 46.5626 17.4308 46.3268C17.1248 46.0415 16.7075 46.0043 16.5266 46.2028ZM14.9407 44.379C14.7181 44.503 14.7181 44.8256 14.9407 45.111C15.1633 45.3963 15.5389 45.5204 15.7198 45.3963C15.9423 45.235 15.9423 44.9125 15.7198 44.6271C15.525 44.3418 15.1633 44.2177 14.9407 44.379Z" fill="black"/>
</svg>
