<svg width="40" height="36" viewBox="0 0 40 36" fill="none" xmlns="http://www.w3.org/2000/svg">
<path d="M23.125 26.9987H16.875C15.8359 26.9987 15 26.2462 15 25.3109V13.4967H8.14844C6.75781 13.4967 6.0625 11.9848 7.04687 11.0987L18.9297 0.395566C19.5156 -0.131855 20.4766 -0.131855 21.0625 0.395566L32.9531 11.0987C33.9375 11.9848 33.2422 13.4967 31.8516 13.4967H25V25.3109C25 26.2462 24.1641 26.9987 23.125 26.9987ZM40 26.4361V34.3123C40 35.2475 39.1641 36 38.125 36H1.875C0.835937 36 0 35.2475 0 34.3123V26.4361C0 25.5008 0.835937 24.7484 1.875 24.7484H12.5V25.3109C12.5 27.4839 14.4609 29.249 16.875 29.249H23.125C25.5391 29.249 27.5 27.4839 27.5 25.3109V24.7484H38.125C39.1641 24.7484 40 25.5008 40 26.4361ZM30.3125 32.6245C30.3125 31.851 29.6094 31.218 28.75 31.218C27.8906 31.218 27.1875 31.851 27.1875 32.6245C27.1875 33.3981 27.8906 34.031 28.75 34.031C29.6094 34.031 30.3125 33.3981 30.3125 32.6245ZM35.3125 32.6245C35.3125 31.851 34.6094 31.218 33.75 31.218C32.8906 31.218 32.1875 31.851 32.1875 32.6245C32.1875 33.3981 32.8906 34.031 33.75 34.031C34.6094 34.031 35.3125 33.3981 35.3125 32.6245Z" fill="black"/>
</svg>
