<svg width="64" height="53" viewBox="0 0 64 53" fill="none" xmlns="http://www.w3.org/2000/svg">
<path d="M59.4286 0H4.55714C2.04286 0 0 1.7154 0 3.82121V49.1788C0 51.2846 2.04286 53 4.55714 53H59.4286C61.9429 53 64 51.2846 64 49.1788V3.82121C64 1.7154 61.9429 0 59.4286 0ZM19.3429 45.4286H9.85714V20.1353H19.3571V45.4286H19.3429ZM14.6 16.6808C11.5571 16.6808 9.1 14.6342 9.1 12.1261C9.1 9.61808 11.5571 7.57143 14.6 7.57143C17.6286 7.57143 20.1 9.61808 20.1 12.1261C20.1 14.646 17.6429 16.6808 14.6 16.6808ZM54.9 45.4286H45.4143V33.125C45.4143 30.1911 45.3429 26.4172 40.4857 26.4172C35.5429 26.4172 34.7857 29.6114 34.7857 32.9121V45.4286H25.3V20.1353H34.4V23.5897H34.5286C35.8 21.6022 38.9 19.5083 43.5143 19.5083C53.1143 19.5083 54.9 24.7491 54.9 31.5634V45.4286Z" fill="black"/>
</svg>
