<svg width="59" height="57" viewBox="0 0 59 57" fill="none" xmlns="http://www.w3.org/2000/svg">
<path d="M29.5066 13.8859C21.1354 13.8859 14.3831 20.4107 14.3831 28.5C14.3831 36.5893 21.1354 43.1141 29.5066 43.1141C37.8778 43.1141 44.6301 36.5893 44.6301 28.5C44.6301 20.4107 37.8778 13.8859 29.5066 13.8859ZM29.5066 38.0011C24.0969 38.0011 19.6743 33.7402 19.6743 28.5C19.6743 23.2598 24.0837 18.9989 29.5066 18.9989C34.9295 18.9989 39.3388 23.2598 39.3388 28.5C39.3388 33.7402 34.9163 38.0011 29.5066 38.0011ZM48.7762 13.2881C48.7762 15.1833 47.1967 16.6968 45.2487 16.6968C43.2875 16.6968 41.7212 15.1705 41.7212 13.2881C41.7212 11.4057 43.3007 9.87945 45.2487 9.87945C47.1967 9.87945 48.7762 11.4057 48.7762 13.2881ZM58.7927 16.7477C58.5689 12.1816 57.4896 8.13695 54.0279 4.80459C50.5794 1.47222 46.3938 0.429265 41.6685 0.200324C36.7985 -0.0667745 22.2015 -0.0667745 17.3315 0.200324C12.6194 0.416546 8.43374 1.4595 4.97206 4.79187C1.51037 8.12423 0.444228 12.1689 0.207306 16.735C-0.0691021 21.441 -0.0691021 35.5463 0.207306 40.2523C0.431065 44.8184 1.51037 48.863 4.97206 52.1954C8.43374 55.5278 12.6062 56.5707 17.3315 56.7997C22.2015 57.0668 36.7985 57.0668 41.6685 56.7997C46.3938 56.5835 50.5794 55.5405 54.0279 52.1954C57.4765 48.863 58.5558 44.8184 58.7927 40.2523C59.0691 35.5463 59.0691 21.4537 58.7927 16.7477ZM52.5011 45.3017C51.4745 47.7947 49.487 49.7152 46.894 50.72C43.0111 52.2081 33.7975 51.8647 29.5066 51.8647C25.2157 51.8647 15.9889 52.1954 12.1192 50.72C9.53938 49.7279 7.55187 47.8074 6.51205 45.3017C4.97206 41.5496 5.32744 32.6464 5.32744 28.5C5.32744 24.3536 4.98522 15.4376 6.51205 11.6983C7.53871 9.20534 9.52621 7.28478 12.1192 6.27998C16.0021 4.79187 25.2157 5.13528 29.5066 5.13528C33.7975 5.13528 43.0243 4.80459 46.894 6.27998C49.4738 7.27206 51.4613 9.19263 52.5011 11.6983C54.0411 15.4504 53.6857 24.3536 53.6857 28.5C53.6857 32.6464 54.0411 41.5624 52.5011 45.3017Z" fill="black"/>
</svg>
